ISO-10303-21;
HEADER;
FILE_DESCRIPTION(('ViewDefinition[DesignTransferView]'),'2;1');
FILE_NAME('/dev/null','2026-07-13T20:27:15-03:00',(''),(''),'IfcOpenShell 0.8.5','IfcOpenShell 0.8.5','Nobody');
FILE_SCHEMA(('IFC4'));
ENDSEC;
DATA;
#1=IFCPROJECT('2gExIfhpbAJBXvMnqjviCk',$,'editor',$,$,$,$,(#21),#5);
#2=IFCSIUNIT(*,.LENGTHUNIT.,.MILLI.,.METRE.);
#3=IFCSIUNIT(*,.AREAUNIT.,$,.SQUARE_METRE.);
#4=IFCSIUNIT(*,.VOLUMEUNIT.,$,.CUBIC_METRE.);
#5=IFCUNITASSIGNMENT((#3,#4,#2));
#6=IFCSITE('0bVywujybEPfLVx4rAz370',$,'Site',$,$,$,$,$,$,$,$,$,$,$);
#7=IFCBUILDING('2pFXg8OoP7Ng62hk88gBs0',$,'Building',$,$,$,$,$,$,$,$,$);
#8=IFCRELAGGREGATES('2XW6wmFTjAxwCp9Q3kjyDp',$,$,$,#1,(#6));
#9=IFCRELAGGREGATES('0b60uqcqvBi8KOcADiRp9s',$,$,$,#6,(#7));
#10=IFCBUILDINGSTOREY('3tt8lHiB5AKOE_b1O$0aub',$,'Level 0',$,$,#16,$,$,$,0.);
#11=IFCRELAGGREGATES('2_yO5Al$r1l9b1DIYcalqf',$,$,$,#7,(#10));
#12=IFCCARTESIANPOINT((0.,0.,0.));
#13=IFCDIRECTION((0.,0.,1.));
#14=IFCDIRECTION((1.,0.,0.));
#15=IFCAXIS2PLACEMENT3D(#12,#13,#14);
#16=IFCLOCALPLACEMENT($,#15);
#17=IFCCARTESIANPOINT((0.,0.,0.));
#18=IFCDIRECTION((0.,0.,1.));
#19=IFCDIRECTION((1.,0.,0.));
#20=IFCAXIS2PLACEMENT3D(#17,#18,#19);
#21=IFCGEOMETRICREPRESENTATIONCONTEXT($,'Model',3,1.0000000000000001E-05,#20,$);
#22=IFCGEOMETRICREPRESENTATIONSUBCONTEXT('Body','Model',*,*,*,*,#21,$,.MODEL_VIEW.,$);
#23=IFCCARTESIANPOINT((0.,-4000.,-2.6551217178265235E-14));
#24=IFCCARTESIANPOINT((0.,-2000.,-2.6551217178265235E-14));
#25=IFCCARTESIANPOINT((-1000.,-3000.,577.35026918962569));
#26=IFCPOLYLOOP((#23,#24,#25));
#27=IFCFACEOUTERBOUND(#26,.T.);
#28=IFCFACE((#27));
#29=IFCCARTESIANPOINT((0.,-2000.,-2.6551217178265235E-14));
#30=IFCCARTESIANPOINT((-4000.,-2000.,-2.6551217178265235E-14));
#31=IFCCARTESIANPOINT((-3000.,-3000.,577.35026918962569));
#32=IFCCARTESIANPOINT((-1000.,-3000.,577.35026918962569));
#33=IFCPOLYLOOP((#29,#30,#31,#32));
#34=IFCFACEOUTERBOUND(#33,.T.);
#35=IFCFACE((#34));
#36=IFCCARTESIANPOINT((-4000.,-2000.,-2.6551217178265235E-14));
#37=IFCCARTESIANPOINT((-4000.,-4000.,-2.6551217178265235E-14));
#38=IFCCARTESIANPOINT((-3000.,-3000.,577.35026918962569));
#39=IFCPOLYLOOP((#36,#37,#38));
#40=IFCFACEOUTERBOUND(#39,.T.);
#41=IFCFACE((#40));
#42=IFCCARTESIANPOINT((0.,-4000.,-2.6551217178265235E-14));
#43=IFCCARTESIANPOINT((-1000.,-3000.,577.35026918962569));
#44=IFCCARTESIANPOINT((-3000.,-3000.,577.35026918962569));
#45=IFCCARTESIANPOINT((-4000.,-4000.,-2.6551217178265235E-14));
#46=IFCPOLYLOOP((#42,#43,#44,#45));
#47=IFCFACEOUTERBOUND(#46,.T.);
#48=IFCFACE((#47));
#49=IFCOPENSHELL((#28,#35,#41,#48));
#50=IFCSHELLBASEDSURFACEMODEL((#49));
#51=IFCSHAPEREPRESENTATION(#22,'Body','SurfaceModel',(#50));
#52=IFCPRODUCTDEFINITIONSHAPE($,$,(#51));
#53=IFCROOF('1Pu0lHusP0U8QRrIdFQmdD',$,'Telhado',$,$,#58,#52,$,.FREEFORM.);
#54=IFCCARTESIANPOINT((0.,0.,-2.6551217178265235E-14));
#55=IFCDIRECTION((0.,0.,1.));
#56=IFCDIRECTION((1.,0.,0.));
#57=IFCAXIS2PLACEMENT3D(#54,#55,#56);
#58=IFCLOCALPLACEMENT($,#57);
#59=IFCPROPERTYSET('1hDpnjJ811EhqYI4IB_Tm$',$,'Pset_RoofCommon',$,(#61,#62,#63,#64,#65));
#60=IFCRELDEFINESBYPROPERTIES('2cA1TnHB11WAYf3EONf_Xl',$,$,$,(#53),#59);
#61=IFCPROPERTYSINGLEVALUE('PitchAngle',$,IFCREAL(30.),$);
#62=IFCPROPERTYSINGLEVALUE('PitchAngleMin',$,IFCREAL(30.),$);
#63=IFCPROPERTYSINGLEVALUE('PitchAngleMax',$,IFCREAL(30.),$);
#64=IFCPROPERTYSINGLEVALUE('NumberOfPitches',$,IFCINTEGER(4),$);
#65=IFCPROPERTYSINGLEVALUE('Thickness',$,IFCREAL(0.10000000000000001),$);
#66=IFCCARTESIANPOINT((0.,-4000.,-2.6551217178265235E-14));
#67=IFCCARTESIANPOINT((0.,-2000.,-2.6551217178265235E-14));
#68=IFCCARTESIANPOINT((-1000.,-3000.,577.35026918962569));
#69=IFCPOLYLOOP((#66,#67,#68));
#70=IFCFACEOUTERBOUND(#69,.T.);
#71=IFCFACE((#70));
#72=IFCCARTESIANPOINT((0.,-2000.,-2.6551217178265235E-14));
#73=IFCCARTESIANPOINT((-4000.,-2000.,-2.6551217178265235E-14));
#74=IFCCARTESIANPOINT((-3000.,-3000.,577.35026918962569));
#75=IFCCARTESIANPOINT((-1000.,-3000.,577.35026918962569));
#76=IFCPOLYLOOP((#72,#73,#74,#75));
#77=IFCFACEOUTERBOUND(#76,.T.);
#78=IFCFACE((#77));
#79=IFCCARTESIANPOINT((-4000.,-2000.,-2.6551217178265235E-14));
#80=IFCCARTESIANPOINT((-4000.,-4000.,-2.6551217178265235E-14));
#81=IFCCARTESIANPOINT((-3000.,-3000.,577.35026918962569));
#82=IFCPOLYLOOP((#79,#80,#81));
#83=IFCFACEOUTERBOUND(#82,.T.);
#84=IFCFACE((#83));
#85=IFCCARTESIANPOINT((0.,-4000.,-2.6551217178265235E-14));
#86=IFCCARTESIANPOINT((-1000.,-3000.,577.35026918962569));
#87=IFCCARTESIANPOINT((-3000.,-3000.,577.35026918962569));
#88=IFCCARTESIANPOINT((-4000.,-4000.,-2.6551217178265235E-14));
#89=IFCPOLYLOOP((#85,#86,#87,#88));
#90=IFCFACEOUTERBOUND(#89,.T.);
#91=IFCFACE((#90));
#92=IFCOPENSHELL((#71,#78,#84,#91));
#93=IFCSHELLBASEDSURFACEMODEL((#92));
#94=IFCSHAPEREPRESENTATION(#22,'Body','SurfaceModel',(#93));
#95=IFCPRODUCTDEFINITIONSHAPE($,$,(#94));
#96=IFCROOF('3VXAXfIjP9bPK9jD4t1Qc9',$,'Telhado',$,$,#101,#95,$,.FREEFORM.);
#97=IFCCARTESIANPOINT((0.,0.,-2.6551217178265235E-14));
#98=IFCDIRECTION((0.,0.,1.));
#99=IFCDIRECTION((1.,0.,0.));
#100=IFCAXIS2PLACEMENT3D(#97,#98,#99);
#101=IFCLOCALPLACEMENT($,#100);
#102=IFCPROPERTYSET('0Js7mx7Rn2EeMEwrPEH4fg',$,'Pset_RoofCommon',$,(#104,#105,#106,#107,#108));
#103=IFCRELDEFINESBYPROPERTIES('2twWeDxgL1zg4fRnGQMz1m',$,$,$,(#96),#102);
#104=IFCPROPERTYSINGLEVALUE('PitchAngle',$,IFCREAL(30.),$);
#105=IFCPROPERTYSINGLEVALUE('PitchAngleMin',$,IFCREAL(30.),$);
#106=IFCPROPERTYSINGLEVALUE('PitchAngleMax',$,IFCREAL(30.),$);
#107=IFCPROPERTYSINGLEVALUE('NumberOfPitches',$,IFCINTEGER(4),$);
#108=IFCPROPERTYSINGLEVALUE('Thickness',$,IFCREAL(0.10000000000000001),$);
#109=IFCCARTESIANPOINT((0.,-4000.,-2.6551217178265235E-14));
#110=IFCCARTESIANPOINT((0.,-2000.,-2.6551217178265235E-14));
#111=IFCCARTESIANPOINT((-1000.,-3000.,577.35026918962569));
#112=IFCPOLYLOOP((#109,#110,#111));
#113=IFCFACEOUTERBOUND(#112,.T.);
#114=IFCFACE((#113));
#115=IFCCARTESIANPOINT((0.,-2000.,-2.6551217178265235E-14));
#116=IFCCARTESIANPOINT((-4000.,-2000.,-2.6551217178265235E-14));
#117=IFCCARTESIANPOINT((-3000.,-3000.,577.35026918962569));
#118=IFCCARTESIANPOINT((-1000.,-3000.,577.35026918962569));
#119=IFCPOLYLOOP((#115,#116,#117,#118));
#120=IFCFACEOUTERBOUND(#119,.T.);
#121=IFCFACE((#120));
#122=IFCCARTESIANPOINT((-4000.,-2000.,-2.6551217178265235E-14));
#123=IFCCARTESIANPOINT((-4000.,-4000.,-2.6551217178265235E-14));
#124=IFCCARTESIANPOINT((-3000.,-3000.,577.35026918962569));
#125=IFCPOLYLOOP((#122,#123,#124));
#126=IFCFACEOUTERBOUND(#125,.T.);
#127=IFCFACE((#126));
#128=IFCCARTESIANPOINT((0.,-4000.,-2.6551217178265235E-14));
#129=IFCCARTESIANPOINT((-1000.,-3000.,577.35026918962569));
#130=IFCCARTESIANPOINT((-3000.,-3000.,577.35026918962569));
#131=IFCCARTESIANPOINT((-4000.,-4000.,-2.6551217178265235E-14));
#132=IFCPOLYLOOP((#128,#129,#130,#131));
#133=IFCFACEOUTERBOUND(#132,.T.);
#134=IFCFACE((#133));
#135=IFCOPENSHELL((#114,#121,#127,#134));
#136=IFCSHELLBASEDSURFACEMODEL((#135));
#137=IFCSHAPEREPRESENTATION(#22,'Body','SurfaceModel',(#136));
#138=IFCPRODUCTDEFINITIONSHAPE($,$,(#137));
#139=IFCROOF('30M5vzjjz8dxqLzvtBuDpN',$,'Telhado',$,$,#144,#138,$,.FREEFORM.);
#140=IFCCARTESIANPOINT((0.,0.,-2.6551217178265235E-14));
#141=IFCDIRECTION((0.,0.,1.));
#142=IFCDIRECTION((1.,0.,0.));
#143=IFCAXIS2PLACEMENT3D(#140,#141,#142);
#144=IFCLOCALPLACEMENT($,#143);
#145=IFCPROPERTYSET('3BQlvi3GD2CBxQHBqhDY$0',$,'Pset_RoofCommon',$,(#147,#148,#149,#150,#151));
#146=IFCRELDEFINESBYPROPERTIES('1sgEKucb95rvNRQK983EEU',$,$,$,(#139),#145);
#147=IFCPROPERTYSINGLEVALUE('PitchAngle',$,IFCREAL(30.),$);
#148=IFCPROPERTYSINGLEVALUE('PitchAngleMin',$,IFCREAL(30.),$);
#149=IFCPROPERTYSINGLEVALUE('PitchAngleMax',$,IFCREAL(30.),$);
#150=IFCPROPERTYSINGLEVALUE('NumberOfPitches',$,IFCINTEGER(4),$);
#151=IFCPROPERTYSINGLEVALUE('Thickness',$,IFCREAL(0.10000000000000001),$);
#152=IFCCARTESIANPOINT((0.,-4000.,-2.6551217178265235E-14));
#153=IFCCARTESIANPOINT((0.,-2000.,-2.6551217178265235E-14));
#154=IFCCARTESIANPOINT((-1000.,-3000.,577.35026918962569));
#155=IFCPOLYLOOP((#152,#153,#154));
#156=IFCFACEOUTERBOUND(#155,.T.);
#157=IFCFACE((#156));
#158=IFCCARTESIANPOINT((0.,-2000.,-2.6551217178265235E-14));
#159=IFCCARTESIANPOINT((-4000.,-2000.,-2.6551217178265235E-14));
#160=IFCCARTESIANPOINT((-3000.,-3000.,577.35026918962569));
#161=IFCCARTESIANPOINT((-1000.,-3000.,577.35026918962569));
#162=IFCPOLYLOOP((#158,#159,#160,#161));
#163=IFCFACEOUTERBOUND(#162,.T.);
#164=IFCFACE((#163));
#165=IFCCARTESIANPOINT((-4000.,-2000.,-2.6551217178265235E-14));
#166=IFCCARTESIANPOINT((-4000.,-4000.,-2.6551217178265235E-14));
#167=IFCCARTESIANPOINT((-3000.,-3000.,577.35026918962569));
#168=IFCPOLYLOOP((#165,#166,#167));
#169=IFCFACEOUTERBOUND(#168,.T.);
#170=IFCFACE((#169));
#171=IFCCARTESIANPOINT((0.,-4000.,-2.6551217178265235E-14));
#172=IFCCARTESIANPOINT((-1000.,-3000.,577.35026918962569));
#173=IFCCARTESIANPOINT((-3000.,-3000.,577.35026918962569));
#174=IFCCARTESIANPOINT((-4000.,-4000.,-2.6551217178265235E-14));
#175=IFCPOLYLOOP((#171,#172,#173,#174));
#176=IFCFACEOUTERBOUND(#175,.T.);
#177=IFCFACE((#176));
#178=IFCOPENSHELL((#157,#164,#170,#177));
#179=IFCSHELLBASEDSURFACEMODEL((#178));
#180=IFCSHAPEREPRESENTATION(#22,'Body','SurfaceModel',(#179));
#181=IFCPRODUCTDEFINITIONSHAPE($,$,(#180));
#182=IFCROOF('0KZovfaOr9xQmUj2OHmaLc',$,'Telhado',$,$,#187,#181,$,.FREEFORM.);
#183=IFCCARTESIANPOINT((0.,0.,-2.6551217178265235E-14));
#184=IFCDIRECTION((0.,0.,1.));
#185=IFCDIRECTION((1.,0.,0.));
#186=IFCAXIS2PLACEMENT3D(#183,#184,#185);
#187=IFCLOCALPLACEMENT($,#186);
#188=IFCPROPERTYSET('3LG_9CJOv4JuqIYUWbxz5R',$,'Pset_RoofCommon',$,(#190,#191,#192,#193,#194));
#189=IFCRELDEFINESBYPROPERTIES('0nBfwSECjDEwtupUVwkl_h',$,$,$,(#182),#188);
#190=IFCPROPERTYSINGLEVALUE('PitchAngle',$,IFCREAL(30.),$);
#191=IFCPROPERTYSINGLEVALUE('PitchAngleMin',$,IFCREAL(30.),$);
#192=IFCPROPERTYSINGLEVALUE('PitchAngleMax',$,IFCREAL(30.),$);
#193=IFCPROPERTYSINGLEVALUE('NumberOfPitches',$,IFCINTEGER(4),$);
#194=IFCPROPERTYSINGLEVALUE('Thickness',$,IFCREAL(0.10000000000000001),$);
#195=IFCCARTESIANPOINT((0.,-4000.,-2.6551217178265235E-14));
#196=IFCCARTESIANPOINT((0.,-2000.,-2.6551217178265235E-14));
#197=IFCCARTESIANPOINT((-1000.,-3000.,577.35026918962569));
#198=IFCPOLYLOOP((#195,#196,#197));
#199=IFCFACEOUTERBOUND(#198,.T.);
#200=IFCFACE((#199));
#201=IFCCARTESIANPOINT((0.,-2000.,-2.6551217178265235E-14));
#202=IFCCARTESIANPOINT((-4000.,-2000.,-2.6551217178265235E-14));
#203=IFCCARTESIANPOINT((-3000.,-3000.,577.35026918962569));
#204=IFCCARTESIANPOINT((-1000.,-3000.,577.35026918962569));
#205=IFCPOLYLOOP((#201,#202,#203,#204));
#206=IFCFACEOUTERBOUND(#205,.T.);
#207=IFCFACE((#206));
#208=IFCCARTESIANPOINT((-4000.,-2000.,-2.6551217178265235E-14));
#209=IFCCARTESIANPOINT((-4000.,-4000.,-2.6551217178265235E-14));
#210=IFCCARTESIANPOINT((-3000.,-3000.,577.35026918962569));
#211=IFCPOLYLOOP((#208,#209,#210));
#212=IFCFACEOUTERBOUND(#211,.T.);
#213=IFCFACE((#212));
#214=IFCCARTESIANPOINT((0.,-4000.,-2.6551217178265235E-14));
#215=IFCCARTESIANPOINT((-1000.,-3000.,577.35026918962569));
#216=IFCCARTESIANPOINT((-3000.,-3000.,577.35026918962569));
#217=IFCCARTESIANPOINT((-4000.,-4000.,-2.6551217178265235E-14));
#218=IFCPOLYLOOP((#214,#215,#216,#217));
#219=IFCFACEOUTERBOUND(#218,.T.);
#220=IFCFACE((#219));
#221=IFCOPENSHELL((#200,#207,#213,#220));
#222=IFCSHELLBASEDSURFACEMODEL((#221));
#223=IFCSHAPEREPRESENTATION(#22,'Body','SurfaceModel',(#222));
#224=IFCPRODUCTDEFINITIONSHAPE($,$,(#223));
#225=IFCROOF('2KavBzpaT0re5tQyFIicxn',$,'Telhado',$,$,#230,#224,$,.FREEFORM.);
#226=IFCCARTESIANPOINT((0.,0.,-2.6551217178265235E-14));
#227=IFCDIRECTION((0.,0.,1.));
#228=IFCDIRECTION((1.,0.,0.));
#229=IFCAXIS2PLACEMENT3D(#226,#227,#228);
#230=IFCLOCALPLACEMENT($,#229);
#231=IFCPROPERTYSET('27Qg7OqYf6Gg8ClFBhNBgX',$,'Pset_RoofCommon',$,(#233,#234,#235,#236,#237));
#232=IFCRELDEFINESBYPROPERTIES('3soGGspZL4382OWihtKPgC',$,$,$,(#225),#231);
#233=IFCPROPERTYSINGLEVALUE('PitchAngle',$,IFCREAL(30.),$);
#234=IFCPROPERTYSINGLEVALUE('PitchAngleMin',$,IFCREAL(30.),$);
#235=IFCPROPERTYSINGLEVALUE('PitchAngleMax',$,IFCREAL(30.),$);
#236=IFCPROPERTYSINGLEVALUE('NumberOfPitches',$,IFCINTEGER(4),$);
#237=IFCPROPERTYSINGLEVALUE('Thickness',$,IFCREAL(0.10000000000000001),$);
#238=IFCCARTESIANPOINT((-4000.,-2000.,-1.779257238814843E-12));
#239=IFCCARTESIANPOINT((-2000.,-2000.,-1.779257238814843E-12));
#240=IFCCARTESIANPOINT((-3000.,-1000.,577.35026918962399));
#241=IFCPOLYLOOP((#238,#239,#240));
#242=IFCFACEOUTERBOUND(#241,.T.);
#243=IFCFACE((#242));
#244=IFCCARTESIANPOINT((-2000.,-2000.,-1.779257238814843E-12));
#245=IFCCARTESIANPOINT((-2000.,4000.,-1.779257238814843E-12));
#246=IFCCARTESIANPOINT((-3000.,3000.,577.35026918962399));
#247=IFCCARTESIANPOINT((-3000.,-1000.,577.35026918962399));
#248=IFCPOLYLOOP((#244,#245,#246,#247));
#249=IFCFACEOUTERBOUND(#248,.T.);
#250=IFCFACE((#249));
#251=IFCCARTESIANPOINT((-2000.,4000.,-1.779257238814843E-12));
#252=IFCCARTESIANPOINT((-4000.,4000.,-1.779257238814843E-12));
#253=IFCCARTESIANPOINT((-3000.,3000.,577.35026918962399));
#254=IFCPOLYLOOP((#251,#252,#253));
#255=IFCFACEOUTERBOUND(#254,.T.);
#256=IFCFACE((#255));
#257=IFCCARTESIANPOINT((-4000.,-2000.,-1.779257238814843E-12));
#258=IFCCARTESIANPOINT((-3000.,-1000.,577.35026918962399));
#259=IFCCARTESIANPOINT((-3000.,3000.,577.35026918962399));
#260=IFCCARTESIANPOINT((-4000.,4000.,-1.779257238814843E-12));
#261=IFCPOLYLOOP((#257,#258,#259,#260));
#262=IFCFACEOUTERBOUND(#261,.T.);
#263=IFCFACE((#262));
#264=IFCOPENSHELL((#243,#250,#256,#263));
#265=IFCSHELLBASEDSURFACEMODEL((#264));
#266=IFCSHAPEREPRESENTATION(#22,'Body','SurfaceModel',(#265));
#267=IFCPRODUCTDEFINITIONSHAPE($,$,(#266));
#268=IFCROOF('19N3Xaah90vvNfHaxSwYy0',$,'Telhado',$,$,#273,#267,$,.FREEFORM.);
#269=IFCCARTESIANPOINT((0.,0.,-1.779257238814843E-12));
#270=IFCDIRECTION((0.,0.,1.));
#271=IFCDIRECTION((1.,0.,0.));
#272=IFCAXIS2PLACEMENT3D(#269,#270,#271);
#273=IFCLOCALPLACEMENT($,#272);
#274=IFCPROPERTYSET('1oU_o8shzDLQlujJdOgT$8',$,'Pset_RoofCommon',$,(#276,#277,#278,#279,#280));
#275=IFCRELDEFINESBYPROPERTIES('27oQscEmT0t8b52IEaeeye',$,$,$,(#268),#274);
#276=IFCPROPERTYSINGLEVALUE('PitchAngle',$,IFCREAL(30.),$);
#277=IFCPROPERTYSINGLEVALUE('PitchAngleMin',$,IFCREAL(30.),$);
#278=IFCPROPERTYSINGLEVALUE('PitchAngleMax',$,IFCREAL(30.),$);
#279=IFCPROPERTYSINGLEVALUE('NumberOfPitches',$,IFCINTEGER(4),$);
#280=IFCPROPERTYSINGLEVALUE('Thickness',$,IFCREAL(0.10000000000000001),$);
ENDSEC;
END-ISO-10303-21;
