ISO-10303-21;
HEADER;
FILE_DESCRIPTION(('ViewDefinition[DesignTransferView]'),'2;1');
FILE_NAME('/dev/null','2026-07-16T16:30:53-03:00',(''),(''),'IfcOpenShell 0.8.5','IfcOpenShell 0.8.5','Nobody');
FILE_SCHEMA(('IFC4'));
ENDSEC;
DATA;
#1=IFCPROJECT('31ojXu4uD1ORhrnlA$zlF_',$,'editor',$,$,$,$,(#21),#5);
#2=IFCSIUNIT(*,.LENGTHUNIT.,.MILLI.,.METRE.);
#3=IFCSIUNIT(*,.AREAUNIT.,$,.SQUARE_METRE.);
#4=IFCSIUNIT(*,.VOLUMEUNIT.,$,.CUBIC_METRE.);
#5=IFCUNITASSIGNMENT((#2,#3,#4));
#6=IFCSITE('2icupO7_r3rfnOlSKxSPwW',$,'Site',$,$,$,$,$,$,$,$,$,$,$);
#7=IFCBUILDING('1Y5igHOg5Atvqe$AOgrVnC',$,'Building',$,$,$,$,$,$,$,$,$);
#8=IFCRELAGGREGATES('1mDaGt7$vDofcAPC0N5Tfe',$,$,$,#1,(#6));
#9=IFCRELAGGREGATES('0NszkpZwvEbuM1aDzeIqb1',$,$,$,#6,(#7));
#10=IFCBUILDINGSTOREY('2IPJuPhMbECuMb$deSlKRP',$,'Level 0',$,$,#16,$,$,$,0.);
#11=IFCRELAGGREGATES('1AA0wEyAvF097oITGDKU7q',$,$,$,#7,(#10));
#12=IFCCARTESIANPOINT((0.,0.,0.));
#13=IFCDIRECTION((0.,0.,1.));
#14=IFCDIRECTION((1.,0.,0.));
#15=IFCAXIS2PLACEMENT3D(#12,#13,#14);
#16=IFCLOCALPLACEMENT($,#15);
#17=IFCCARTESIANPOINT((0.,0.,0.));
#18=IFCDIRECTION((0.,0.,1.));
#19=IFCDIRECTION((1.,0.,0.));
#20=IFCAXIS2PLACEMENT3D(#17,#18,#19);
#21=IFCGEOMETRICREPRESENTATIONCONTEXT($,'Model',3,1.0000000000000001E-05,#20,$);
#22=IFCGEOMETRICREPRESENTATIONSUBCONTEXT('Body','Model',*,*,*,*,#21,$,.MODEL_VIEW.,$);
#23=IFCCARTESIANPOINT((4500.,-4500.,-288.6751345948129));
#24=IFCCARTESIANPOINT((4500.,-1500.,-288.6751345948129));
#25=IFCCARTESIANPOINT((3000.,-3000.,577.35026918962569));
#26=IFCPOLYLOOP((#23,#24,#25));
#27=IFCFACEOUTERBOUND(#26,.T.);
#28=IFCFACE((#27));
#29=IFCCARTESIANPOINT((4500.,-1500.,-288.6751345948129));
#30=IFCCARTESIANPOINT((-4500.,-1500.,-288.6751345948129));
#31=IFCCARTESIANPOINT((-3000.,-3000.,577.35026918962569));
#32=IFCCARTESIANPOINT((3000.0000000000005,-2999.9999999999995,577.35026918962546));
#33=IFCPOLYLOOP((#29,#30,#31,#32));
#34=IFCFACEOUTERBOUND(#33,.T.);
#35=IFCFACE((#34));
#36=IFCCARTESIANPOINT((-4500.,-1500.,-288.6751345948129));
#37=IFCCARTESIANPOINT((-4500.,-4500.,-288.6751345948129));
#38=IFCCARTESIANPOINT((-3000.,-3000.,577.35026918962569));
#39=IFCPOLYLOOP((#36,#37,#38));
#40=IFCFACEOUTERBOUND(#39,.T.);
#41=IFCFACE((#40));
#42=IFCCARTESIANPOINT((4500.,-4500.,-288.6751345948129));
#43=IFCCARTESIANPOINT((2999.9999999999991,-2999.9999999999995,577.35026918962592));
#44=IFCCARTESIANPOINT((-2999.9999999999991,-3000.,577.35026918962569));
#45=IFCCARTESIANPOINT((-4500.,-4500.,-288.6751345948129));
#46=IFCPOLYLOOP((#42,#43,#44,#45));
#47=IFCFACEOUTERBOUND(#46,.T.);
#48=IFCFACE((#47));
#49=IFCOPENSHELL((#28,#35,#41,#48));
#50=IFCSHELLBASEDSURFACEMODEL((#49));
#51=IFCSHAPEREPRESENTATION(#22,'Body','SurfaceModel',(#50));
#52=IFCPRODUCTDEFINITIONSHAPE($,$,(#51));
#53=IFCROOF('2AUXmifoTBjwOsCPjnkwfy',$,'Telhado',$,$,#58,#52,$,.FREEFORM.);
#54=IFCCARTESIANPOINT((0.,0.,-3.1260802752259468E-14));
#55=IFCDIRECTION((0.,0.,1.));
#56=IFCDIRECTION((1.,0.,0.));
#57=IFCAXIS2PLACEMENT3D(#54,#55,#56);
#58=IFCLOCALPLACEMENT($,#57);
#59=IFCPROPERTYSET('1_YrgY6ij7ZxblpZiSQkbT',$,'Pset_RoofCommon',$,(#61,#62,#63,#64,#65,#66,#67,#68));
#60=IFCRELDEFINESBYPROPERTIES('3B8ia7QZH3hxuuGCt4Wkvl',$,$,$,(#53),#59);
#61=IFCPROPERTYSINGLEVALUE('Status',$,IFCLABEL('NEW'),$);
#62=IFCPROPERTYSINGLEVALUE('IsExternal',$,IFCBOOLEAN(.T.),$);
#63=IFCPROPERTYSINGLEVALUE('LoadBearing',$,IFCBOOLEAN(.F.),$);
#64=IFCPROPERTYSINGLEVALUE('PitchAngle',$,IFCREAL(30.),$);
#65=IFCPROPERTYSINGLEVALUE('PitchAngleMin',$,IFCREAL(30.),$);
#66=IFCPROPERTYSINGLEVALUE('PitchAngleMax',$,IFCREAL(30.),$);
#67=IFCPROPERTYSINGLEVALUE('NumberOfPitches',$,IFCINTEGER(4),$);
#68=IFCPROPERTYSINGLEVALUE('Thickness',$,IFCREAL(0.10000000000000001),$);
#69=IFCELEMENTQUANTITY('0IxgIt9ZHAgvs5uBWdChSW',$,'Qto_RoofBaseQuantities',$,'BaseQuantities',(#71,#72,#73));
#70=IFCRELDEFINESBYPROPERTIES('3xhNz9GL57tv9x9AgXQV6u',$,$,$,(#53),#69);
#71=IFCQUANTITYAREA('GrossArea',$,$,31.1769,$);
#72=IFCQUANTITYAREA('NetArea',$,$,31.1769,$);
#73=IFCQUANTITYAREA('ProjectedArea',$,$,27.,$);
ENDSEC;
END-ISO-10303-21;
