ISO-10303-21;
HEADER;
FILE_DESCRIPTION(('ViewDefinition[DesignTransferView]'),'2;1');
FILE_NAME('/dev/null','2026-07-16T17:02:02-03:00',(''),(''),'IfcOpenShell 0.8.5','IfcOpenShell 0.8.5','Nobody');
FILE_SCHEMA(('IFC4'));
ENDSEC;
DATA;
#1=IFCPROJECT('31p1gQu191ahx1fB7uIfln',$,'editor',$,$,$,$,(#21),#5);
#2=IFCSIUNIT(*,.LENGTHUNIT.,.MILLI.,.METRE.);
#3=IFCSIUNIT(*,.AREAUNIT.,$,.SQUARE_METRE.);
#4=IFCSIUNIT(*,.VOLUMEUNIT.,$,.CUBIC_METRE.);
#5=IFCUNITASSIGNMENT((#2,#3,#4));
#6=IFCSITE('3iLI8DRyL1E9HMpD4O$r9s',$,'Site',$,$,$,$,$,$,$,$,$,$,$);
#7=IFCBUILDING('122cZ_iUP0HPr6lkVKyuQc',$,'Building',$,$,$,$,$,$,$,$,$);
#8=IFCRELAGGREGATES('2qydgdy8H29RyBt99CFKCe',$,$,$,#1,(#6));
#9=IFCRELAGGREGATES('1hgolt$jH9OBBy9R$efcUy',$,$,$,#6,(#7));
#10=IFCBUILDINGSTOREY('052to0GDr2yQ1aPbNdwTIz',$,'Level 0',$,$,#16,$,$,$,0.);
#11=IFCRELAGGREGATES('3zNfriNyT8aO1lbAV$rzMD',$,$,$,#7,(#10));
#12=IFCCARTESIANPOINT((0.,0.,0.));
#13=IFCDIRECTION((0.,0.,1.));
#14=IFCDIRECTION((1.,0.,0.));
#15=IFCAXIS2PLACEMENT3D(#12,#13,#14);
#16=IFCLOCALPLACEMENT($,#15);
#17=IFCCARTESIANPOINT((0.,0.,0.));
#18=IFCDIRECTION((0.,0.,1.));
#19=IFCDIRECTION((1.,0.,0.));
#20=IFCAXIS2PLACEMENT3D(#17,#18,#19);
#21=IFCGEOMETRICREPRESENTATIONCONTEXT($,'Model',3,1.0000000000000001E-05,#20,$);
#22=IFCGEOMETRICREPRESENTATIONSUBCONTEXT('Body','Model',*,*,*,*,#21,$,.MODEL_VIEW.,$);
#23=IFCCARTESIANPOINT((4500.,-2499.9999999999995,866.02540378443837));
#24=IFCCARTESIANPOINT((4500.,-500.,-288.67513459481285));
#25=IFCCARTESIANPOINT((-4500.,-500.,-288.67513459481285));
#26=IFCCARTESIANPOINT((-4500.,-2500.,866.02540378443859));
#27=IFCPOLYLOOP((#23,#24,#25,#26));
#28=IFCFACEOUTERBOUND(#27,.T.);
#29=IFCFACE((#28));
#30=IFCCARTESIANPOINT((4500.,-4500.,-288.67513459481285));
#31=IFCCARTESIANPOINT((4500.,-2499.9999999999995,866.02540378443882));
#32=IFCCARTESIANPOINT((-4500.,-2500.,866.02540378443859));
#33=IFCCARTESIANPOINT((-4500.,-4500.,-288.67513459481285));
#34=IFCPOLYLOOP((#30,#31,#32,#33));
#35=IFCFACEOUTERBOUND(#34,.T.);
#36=IFCFACE((#35));
#37=IFCOPENSHELL((#29,#36));
#38=IFCSHELLBASEDSURFACEMODEL((#37));
#39=IFCSHAPEREPRESENTATION(#22,'Body','SurfaceModel',(#38));
#40=IFCPRODUCTDEFINITIONSHAPE($,$,(#39));
#41=IFCROOF('2cs_Agq0L39uR9AJYWDI2Q',$,'Telhado',$,$,#46,#40,$,.FREEFORM.);
#42=IFCCARTESIANPOINT((0.,0.,-5.7388226750669561E-15));
#43=IFCDIRECTION((0.,0.,1.));
#44=IFCDIRECTION((1.,0.,0.));
#45=IFCAXIS2PLACEMENT3D(#42,#43,#44);
#46=IFCLOCALPLACEMENT($,#45);
#47=IFCPROPERTYSET('3BSMGakt5AaQQ9tNfJnaJL',$,'Pset_RoofCommon',$,(#49,#50,#51,#52,#53,#54,#55,#56));
#48=IFCRELDEFINESBYPROPERTIES('1TYfgCcGX6jR4QX4V2aQnb',$,$,$,(#41),#47);
#49=IFCPROPERTYSINGLEVALUE('Status',$,IFCLABEL('NEW'),$);
#50=IFCPROPERTYSINGLEVALUE('IsExternal',$,IFCBOOLEAN(.T.),$);
#51=IFCPROPERTYSINGLEVALUE('LoadBearing',$,IFCBOOLEAN(.F.),$);
#52=IFCPROPERTYSINGLEVALUE('PitchAngle',$,IFCREAL(30.),$);
#53=IFCPROPERTYSINGLEVALUE('PitchAngleMin',$,IFCREAL(30.),$);
#54=IFCPROPERTYSINGLEVALUE('PitchAngleMax',$,IFCREAL(30.),$);
#55=IFCPROPERTYSINGLEVALUE('NumberOfPitches',$,IFCINTEGER(2),$);
#56=IFCPROPERTYSINGLEVALUE('Thickness',$,IFCREAL(0.10000000000000001),$);
#57=IFCELEMENTQUANTITY('090fINX$XD6xZRawYTa91U',$,'Qto_RoofBaseQuantities',$,'BaseQuantities',(#59,#60,#61));
#58=IFCRELDEFINESBYPROPERTIES('0cO9vmdzz3mf89u4xwE66v',$,$,$,(#41),#57);
#59=IFCQUANTITYAREA('GrossArea',$,$,41.569200000000002,$);
#60=IFCQUANTITYAREA('NetArea',$,$,41.569200000000002,$);
#61=IFCQUANTITYAREA('ProjectedArea',$,$,36.,$);
#62=IFCCARTESIANPOINT((4500.,-2499.9999999999995,866.02540378443837));
#63=IFCCARTESIANPOINT((4500.,-500.,-288.67513459481285));
#64=IFCCARTESIANPOINT((-4500.,-500.,-288.67513459481285));
#65=IFCCARTESIANPOINT((-4500.,-2500.,866.02540378443859));
#66=IFCPOLYLOOP((#62,#63,#64,#65));
#67=IFCFACEOUTERBOUND(#66,.T.);
#68=IFCFACE((#67));
#69=IFCCARTESIANPOINT((4500.,-4500.,-288.67513459481285));
#70=IFCCARTESIANPOINT((4500.,-2499.9999999999995,866.02540378443882));
#71=IFCCARTESIANPOINT((-4500.,-2500.,866.02540378443859));
#72=IFCCARTESIANPOINT((-4500.,-4500.,-288.67513459481285));
#73=IFCPOLYLOOP((#69,#70,#71,#72));
#74=IFCFACEOUTERBOUND(#73,.T.);
#75=IFCFACE((#74));
#76=IFCOPENSHELL((#68,#75));
#77=IFCSHELLBASEDSURFACEMODEL((#76));
#78=IFCSHAPEREPRESENTATION(#22,'Body','SurfaceModel',(#77));
#79=IFCPRODUCTDEFINITIONSHAPE($,$,(#78));
#80=IFCROOF('1zOIiIgKH7zO8B5VJHWxFF',$,'Telhado',$,$,#85,#79,$,.FREEFORM.);
#81=IFCCARTESIANPOINT((0.,0.,-5.7388226750669561E-15));
#82=IFCDIRECTION((0.,0.,1.));
#83=IFCDIRECTION((1.,0.,0.));
#84=IFCAXIS2PLACEMENT3D(#81,#82,#83);
#85=IFCLOCALPLACEMENT($,#84);
#86=IFCPROPERTYSET('0l3ZCj9FzFlRecrPNXG3$7',$,'Pset_RoofCommon',$,(#88,#89,#90,#91,#92,#93,#94,#95));
#87=IFCRELDEFINESBYPROPERTIES('3PHBrKid90UQ2mK$y0_gE7',$,$,$,(#80),#86);
#88=IFCPROPERTYSINGLEVALUE('Status',$,IFCLABEL('NEW'),$);
#89=IFCPROPERTYSINGLEVALUE('IsExternal',$,IFCBOOLEAN(.T.),$);
#90=IFCPROPERTYSINGLEVALUE('LoadBearing',$,IFCBOOLEAN(.F.),$);
#91=IFCPROPERTYSINGLEVALUE('PitchAngle',$,IFCREAL(30.),$);
#92=IFCPROPERTYSINGLEVALUE('PitchAngleMin',$,IFCREAL(30.),$);
#93=IFCPROPERTYSINGLEVALUE('PitchAngleMax',$,IFCREAL(30.),$);
#94=IFCPROPERTYSINGLEVALUE('NumberOfPitches',$,IFCINTEGER(2),$);
#95=IFCPROPERTYSINGLEVALUE('Thickness',$,IFCREAL(0.10000000000000001),$);
#96=IFCELEMENTQUANTITY('1tmmL$J519tfvVUcZnmYLv',$,'Qto_RoofBaseQuantities',$,'BaseQuantities',(#98,#99,#100));
#97=IFCRELDEFINESBYPROPERTIES('3iJVjU6CrFHuwvYby5OJdh',$,$,$,(#80),#96);
#98=IFCQUANTITYAREA('GrossArea',$,$,41.569200000000002,$);
#99=IFCQUANTITYAREA('NetArea',$,$,41.569200000000002,$);
#100=IFCQUANTITYAREA('ProjectedArea',$,$,36.,$);
ENDSEC;
END-ISO-10303-21;
