ISO-10303-21;
HEADER;
FILE_DESCRIPTION(('ViewDefinition[DesignTransferView]'),'2;1');
FILE_NAME('/dev/null','2026-07-16T16:58:17-03:00',(''),(''),'IfcOpenShell 0.8.5','IfcOpenShell 0.8.5','Nobody');
FILE_SCHEMA(('IFC4'));
ENDSEC;
DATA;
#1=IFCPROJECT('1H6wyiySj6XhLin3x19uq9',$,'editor',$,$,$,$,(#21),#5);
#2=IFCSIUNIT(*,.LENGTHUNIT.,.MILLI.,.METRE.);
#3=IFCSIUNIT(*,.AREAUNIT.,$,.SQUARE_METRE.);
#4=IFCSIUNIT(*,.VOLUMEUNIT.,$,.CUBIC_METRE.);
#5=IFCUNITASSIGNMENT((#3,#4,#2));
#6=IFCSITE('3wm0IE1jz898c67PSEQHbU',$,'Site',$,$,$,$,$,$,$,$,$,$,$);
#7=IFCBUILDING('1D_UQwGjz03OQcQxJBzFa2',$,'Building',$,$,$,$,$,$,$,$,$);
#8=IFCRELAGGREGATES('2SvZUvlgr1oOmg2F41Msz$',$,$,$,#1,(#6));
#9=IFCRELAGGREGATES('0UcKEawYf6fwE4jcukcwuE',$,$,$,#6,(#7));
#10=IFCBUILDINGSTOREY('3BNuUtV491vxU8NnEJ8BFw',$,'Level 0',$,$,#16,$,$,$,0.);
#11=IFCRELAGGREGATES('19m_oaoNL1S845uHCFSzae',$,$,$,#7,(#10));
#12=IFCCARTESIANPOINT((0.,0.,0.));
#13=IFCDIRECTION((0.,0.,1.));
#14=IFCDIRECTION((1.,0.,0.));
#15=IFCAXIS2PLACEMENT3D(#12,#13,#14);
#16=IFCLOCALPLACEMENT($,#15);
#17=IFCCARTESIANPOINT((0.,0.,0.));
#18=IFCDIRECTION((0.,0.,1.));
#19=IFCDIRECTION((1.,0.,0.));
#20=IFCAXIS2PLACEMENT3D(#17,#18,#19);
#21=IFCGEOMETRICREPRESENTATIONCONTEXT($,'Model',3,1.0000000000000001E-05,#20,$);
#22=IFCGEOMETRICREPRESENTATIONSUBCONTEXT('Body','Model',*,*,*,*,#21,$,.MODEL_VIEW.,$);
#23=IFCCARTESIANPOINT((4500.,-4500.,-288.67513459481199));
#24=IFCCARTESIANPOINT((4500.,-500.,-288.67513459481199));
#25=IFCCARTESIANPOINT((2500.,-2499.9999999999995,866.0254037844395));
#26=IFCPOLYLOOP((#23,#24,#25));
#27=IFCFACEOUTERBOUND(#26,.T.);
#28=IFCFACE((#27));
#29=IFCCARTESIANPOINT((4500.,-499.99999999999909,-288.67513459481245));
#30=IFCCARTESIANPOINT((-4500.,-500.,-288.67513459481199));
#31=IFCCARTESIANPOINT((-2499.9999999999995,-2500.,866.0254037844395));
#32=IFCCARTESIANPOINT((2499.9999999999991,-2500.,866.0254037844395));
#33=IFCPOLYLOOP((#29,#30,#31,#32));
#34=IFCFACEOUTERBOUND(#33,.T.);
#35=IFCFACE((#34));
#36=IFCCARTESIANPOINT((-4499.9999999999991,-500.,-288.67513459481148));
#37=IFCCARTESIANPOINT((-4500.,-4500.,-288.67513459481199));
#38=IFCCARTESIANPOINT((-2500.,-2499.9999999999995,866.0254037844395));
#39=IFCPOLYLOOP((#36,#37,#38));
#40=IFCFACEOUTERBOUND(#39,.T.);
#41=IFCFACE((#40));
#42=IFCCARTESIANPOINT((4500.,-4500.,-288.67513459481199));
#43=IFCCARTESIANPOINT((2499.9999999999995,-2499.9999999999995,866.02540378443973));
#44=IFCCARTESIANPOINT((-2500.0000000000005,-2500.,866.0254037844395));
#45=IFCCARTESIANPOINT((-4500.,-4500.,-288.67513459481199));
#46=IFCPOLYLOOP((#42,#43,#44,#45));
#47=IFCFACEOUTERBOUND(#46,.T.);
#48=IFCFACE((#47));
#49=IFCOPENSHELL((#28,#35,#41,#48));
#50=IFCSHELLBASEDSURFACEMODEL((#49));
#51=IFCSHAPEREPRESENTATION(#22,'Body','SurfaceModel',(#50));
#52=IFCPRODUCTDEFINITIONSHAPE($,$,(#51));
#53=IFCROOF('1lVnmiVjr1BAXUtNRBAu5W',$,'Telhado',$,$,#58,#52,$,.FREEFORM.);
#54=IFCCARTESIANPOINT((0.,0.,8.9282215534079518E-13));
#55=IFCDIRECTION((0.,0.,1.));
#56=IFCDIRECTION((1.,0.,0.));
#57=IFCAXIS2PLACEMENT3D(#54,#55,#56);
#58=IFCLOCALPLACEMENT($,#57);
#59=IFCPROPERTYSET('3a_sx_a992GPiO6gV25Gbd',$,'Pset_RoofCommon',$,(#61,#62,#63,#64,#65,#66,#67,#68));
#60=IFCRELDEFINESBYPROPERTIES('2S7qEEqDrAhOnWCeEuARMO',$,$,$,(#53),#59);
#61=IFCPROPERTYSINGLEVALUE('Status',$,IFCLABEL('NEW'),$);
#62=IFCPROPERTYSINGLEVALUE('IsExternal',$,IFCBOOLEAN(.T.),$);
#63=IFCPROPERTYSINGLEVALUE('LoadBearing',$,IFCBOOLEAN(.F.),$);
#64=IFCPROPERTYSINGLEVALUE('PitchAngle',$,IFCREAL(30.),$);
#65=IFCPROPERTYSINGLEVALUE('PitchAngleMin',$,IFCREAL(30.),$);
#66=IFCPROPERTYSINGLEVALUE('PitchAngleMax',$,IFCREAL(30.),$);
#67=IFCPROPERTYSINGLEVALUE('NumberOfPitches',$,IFCINTEGER(4),$);
#68=IFCPROPERTYSINGLEVALUE('Thickness',$,IFCREAL(0.10000000000000001),$);
#69=IFCELEMENTQUANTITY('1yCTFFDbrEs9m1IFXDXIlC',$,'Qto_RoofBaseQuantities',$,'BaseQuantities',(#71,#72,#73));
#70=IFCRELDEFINESBYPROPERTIES('3TeeDiN6bEIeqknGDe2mq$',$,$,$,(#53),#69);
#71=IFCQUANTITYAREA('GrossArea',$,$,41.569200000000002,$);
#72=IFCQUANTITYAREA('NetArea',$,$,41.569200000000002,$);
#73=IFCQUANTITYAREA('ProjectedArea',$,$,36.,$);
ENDSEC;
END-ISO-10303-21;
