ISO-10303-21;
HEADER;
FILE_DESCRIPTION(('ViewDefinition[DesignTransferView]'),'2;1');
FILE_NAME('/dev/null','2026-07-10T11:09:17-03:00',(''),(''),'IfcOpenShell 0.8.5','IfcOpenShell 0.8.5','Nobody');
FILE_SCHEMA(('IFC4'));
ENDSEC;
DATA;
#1=IFCPROJECT('2CyE0H9Nn4$R76M$Be6OTv',$,'editor',$,$,$,$,(#21),#5);
#2=IFCSIUNIT(*,.LENGTHUNIT.,.MILLI.,.METRE.);
#3=IFCSIUNIT(*,.AREAUNIT.,$,.SQUARE_METRE.);
#4=IFCSIUNIT(*,.VOLUMEUNIT.,$,.CUBIC_METRE.);
#5=IFCUNITASSIGNMENT((#4,#2,#3));
#6=IFCSITE('3GOAKJbLLDxP$uA_YQ39N8',$,'Site',$,$,$,$,$,$,$,$,$,$,$);
#7=IFCBUILDING('1rrI5uN9nEWexKiYXALUub',$,'Building',$,$,$,$,$,$,$,$,$);
#8=IFCRELAGGREGATES('2Ly10DOFP00OtNSvUODfEJ',$,$,$,#1,(#6));
#9=IFCRELAGGREGATES('1wBSk1pjX7IBpi7KRnipzd',$,$,$,#6,(#7));
#10=IFCBUILDINGSTOREY('0SPQmu8jPANuO1ntZcNi7N',$,'Level 0',$,$,#16,$,$,$,0.);
#11=IFCRELAGGREGATES('21RDqLz4P8PRpSLttjkrZv',$,$,$,#7,(#10));
#12=IFCCARTESIANPOINT((0.,0.,0.));
#13=IFCDIRECTION((0.,0.,1.));
#14=IFCDIRECTION((1.,0.,0.));
#15=IFCAXIS2PLACEMENT3D(#12,#13,#14);
#16=IFCLOCALPLACEMENT($,#15);
#17=IFCCARTESIANPOINT((0.,0.,0.));
#18=IFCDIRECTION((0.,0.,1.));
#19=IFCDIRECTION((1.,0.,0.));
#20=IFCAXIS2PLACEMENT3D(#17,#18,#19);
#21=IFCGEOMETRICREPRESENTATIONCONTEXT($,'Model',3,1.0000000000000001E-05,#20,$);
#22=IFCGEOMETRICREPRESENTATIONSUBCONTEXT('Body','Model',*,*,*,*,#21,$,.MODEL_VIEW.,$);
#23=IFCCARTESIANPOINT((-4000.,-2000.,8.8669041313618809E-13));
#24=IFCCARTESIANPOINT((-4000.,-4000.,8.8669041313618809E-13));
#25=IFCCARTESIANPOINT((-3499.9999999999995,-4000.,288.67513459481404));
#26=IFCCARTESIANPOINT((-3499.9999999999995,-2000.,288.67513459481404));
#27=IFCPOLYLOOP((#23,#24,#25,#26));
#28=IFCFACEOUTERBOUND(#27,.T.);
#29=IFCFACE((#28));
#30=IFCCARTESIANPOINT((-3499.9999999999995,-4000.,288.67513459481347));
#31=IFCCARTESIANPOINT((-3000.,-4000.,8.8669041313618809E-13));
#32=IFCCARTESIANPOINT((-3000.,-2000.,8.8669041313618809E-13));
#33=IFCCARTESIANPOINT((-3499.9999999999995,-2000.,288.67513459481347));
#34=IFCPOLYLOOP((#30,#31,#32,#33));
#35=IFCFACEOUTERBOUND(#34,.T.);
#36=IFCFACE((#35));
#37=IFCOPENSHELL((#29,#36));
#38=IFCSHELLBASEDSURFACEMODEL((#37));
#39=IFCSHAPEREPRESENTATION(#22,'Body','SurfaceModel',(#38));
#40=IFCPRODUCTDEFINITIONSHAPE($,$,(#39));
#41=IFCROOF('0HnLuWOP17Zvg95X5Moxyp',$,'Telhado',$,$,#46,#40,$,.FREEFORM.);
#42=IFCCARTESIANPOINT((0.,0.,8.8669041313618809E-13));
#43=IFCDIRECTION((0.,0.,1.));
#44=IFCDIRECTION((1.,0.,0.));
#45=IFCAXIS2PLACEMENT3D(#42,#43,#44);
#46=IFCLOCALPLACEMENT($,#45);
#47=IFCPROPERTYSET('3o8yyaoJr33PfQ7COq5ILo',$,'Pset_RoofCommon',$,(#49,#50,#51,#52,#53));
#48=IFCRELDEFINESBYPROPERTIES('0O4YQ$H_10b8$9dhgKd2Rm',$,$,$,(#41),#47);
#49=IFCPROPERTYSINGLEVALUE('PitchAngle',$,IFCREAL(30.),$);
#50=IFCPROPERTYSINGLEVALUE('PitchAngleMin',$,IFCREAL(30.),$);
#51=IFCPROPERTYSINGLEVALUE('PitchAngleMax',$,IFCREAL(30.),$);
#52=IFCPROPERTYSINGLEVALUE('NumberOfPitches',$,IFCINTEGER(2),$);
#53=IFCPROPERTYSINGLEVALUE('Thickness',$,IFCREAL(0.10000000000000001),$);
#54=IFCCARTESIANPOINT((-4000.,-2000.,8.8669041313618809E-13));
#55=IFCCARTESIANPOINT((-4000.,-4000.,8.8669041313618809E-13));
#56=IFCCARTESIANPOINT((-3499.9999999999995,-4000.,288.67513459481404));
#57=IFCCARTESIANPOINT((-3499.9999999999995,-2000.,288.67513459481404));
#58=IFCPOLYLOOP((#54,#55,#56,#57));
#59=IFCFACEOUTERBOUND(#58,.T.);
#60=IFCFACE((#59));
#61=IFCCARTESIANPOINT((-3499.9999999999995,-4000.,288.67513459481347));
#62=IFCCARTESIANPOINT((-3000.,-4000.,8.8669041313618809E-13));
#63=IFCCARTESIANPOINT((-3000.,-2000.,8.8669041313618809E-13));
#64=IFCCARTESIANPOINT((-3499.9999999999995,-2000.,288.67513459481347));
#65=IFCPOLYLOOP((#61,#62,#63,#64));
#66=IFCFACEOUTERBOUND(#65,.T.);
#67=IFCFACE((#66));
#68=IFCOPENSHELL((#60,#67));
#69=IFCSHELLBASEDSURFACEMODEL((#68));
#70=IFCSHAPEREPRESENTATION(#22,'Body','SurfaceModel',(#69));
#71=IFCPRODUCTDEFINITIONSHAPE($,$,(#70));
#72=IFCROOF('0vKSXUA7z8XAuc$j2YlfqX',$,'Telhado',$,$,#77,#71,$,.FREEFORM.);
#73=IFCCARTESIANPOINT((0.,0.,8.8669041313618809E-13));
#74=IFCDIRECTION((0.,0.,1.));
#75=IFCDIRECTION((1.,0.,0.));
#76=IFCAXIS2PLACEMENT3D(#73,#74,#75);
#77=IFCLOCALPLACEMENT($,#76);
#78=IFCPROPERTYSET('29hkPImF13mR7QOR1rIPfy',$,'Pset_RoofCommon',$,(#80,#81,#82,#83,#84));
#79=IFCRELDEFINESBYPROPERTIES('2BY13gd_v1d8JdPC1huhT4',$,$,$,(#72),#78);
#80=IFCPROPERTYSINGLEVALUE('PitchAngle',$,IFCREAL(30.),$);
#81=IFCPROPERTYSINGLEVALUE('PitchAngleMin',$,IFCREAL(30.),$);
#82=IFCPROPERTYSINGLEVALUE('PitchAngleMax',$,IFCREAL(30.),$);
#83=IFCPROPERTYSINGLEVALUE('NumberOfPitches',$,IFCINTEGER(2),$);
#84=IFCPROPERTYSINGLEVALUE('Thickness',$,IFCREAL(0.10000000000000001),$);
ENDSEC;
END-ISO-10303-21;
